<svg viewBox="0 0 557 480" xmlns="http://www.w3.org/2000/svg" xmlns:xlink="http://www.w3.org/1999/xlink"><defs><rect id="a" height="378.778" rx="7.778" width="455"/><filter id="b" height="144.9%" width="137.4%" x="-18.7%" y="-18%"><feOffset dy="17" in="SourceAlpha" result="shadowOffsetOuter1"/><feGaussianBlur in="shadowOffsetOuter1" result="shadowBlurOuter1" stdDeviation="25.5"/><feColorMatrix in="shadowBlurOuter1" values="0 0 0 0 0   0 0 0 0 0   0 0 0 0 0  0 0 0 0.25 0"/></filter><linearGradient id="c" x1="0%" y1="0%" y2="100%"><stop offset="0" stop-color="#21254e"/><stop offset="1" stop-color="#2b4a83"/></linearGradient><circle id="d" cx="35" cy="35" r="35"/><filter id="e" height="138.6%" width="138.6%" x="-19.3%" y="-15%"><feOffset dy="3" in="SourceAlpha" result="shadowOffsetOuter1"/><feGaussianBlur in="shadowOffsetOuter1" result="shadowBlurOuter1" stdDeviation="4"/><feColorMatrix in="shadowBlurOuter1" values="0 0 0 0 0   0 0 0 0 0   0 0 0 0 0  0 0 0 0.1 0"/></filter><rect id="f" height="32.667" rx="3.889" width="229.444"/><filter id="g" height="155.1%" width="107.8%" x="-3.9%" y="-18.4%"><feOffset dy="3" in="SourceAlpha" result="shadowOffsetOuter1"/><feGaussianBlur in="shadowOffsetOuter1" result="shadowBlurOuter1" stdDeviation="2.5"/><feColorMatrix in="shadowBlurOuter1" values="0 0 0 0 0   0 0 0 0 0   0 0 0 0 0  0 0 0 0.1 0"/></filter><mask id="h" fill="#fff"><path d="m.007.017h13.962v13.932h-13.962z" fill="#fff" fill-rule="evenodd"/></mask></defs><g fill="none" fill-rule="evenodd" transform="translate(-15 -13)"><rect fill="#ffd23f" height="310" rx="155" transform="matrix(-.93358043 -.35836795 -.35836795 .93358043 651.114069 120.67686)" width="508" x="39" y="81"/><g transform="translate(66 47)"><use fill="#000" filter="url(#b)" xlink:href="#a"/><use fill="#fff" xlink:href="#a"/><path d="m255.111111 47.4444444h-231.7777777" stroke="#f2f3f5" stroke-linecap="square" stroke-width=".778"/><g fill="#ffd23f" transform="translate(246.556 16.333)"><path d="m.40097427.04068475h4.17621359c.35339806 0 .53349515.42711864.2854369.6779661l-4.16601942 4.2c-.25145631.25423729-.68300971.0779661-.68300971-.2779661l-.01359223-4.2c0-.22033899.17669903-.4.40097087-.4m13.16068983 13.94236605h-4.17961167c-.35339806 0-.53349515-.4271186-.2854369-.6779661l4.16262137-4.19999995c.2514563-.25423729.6829757-.07796611.6829757.2779661l.0136262 4.19999995c.0067962.220339-.1733009.4-.3941747.4"/><path d="m.58786748 13.3695051c-.77475729-.7729153-.77475729-2.0237288 0-2.7966102l10.00048542-9.97627117c.7747573-.77291526 2.0286408-.77291526 2.8 0 .7747573.77288135.7747573 2.02369491 0 2.79322034l-10.00048542 9.97966103c-.77135923.7728813-2.02864078.7728813-2.8 0" mask="url(#h)" transform="translate(0 .017)"/></g><path d="m276 0h171.111111c4.295548 0 7.777778 3.48222972 7.777778 7.77777778v363.22222222c0 4.295548-3.48223 7.777778-7.777778 7.777778h-171.111111z" fill="url(#c)"/><g opacity=".552"><rect fill="#fff" height="29.556" rx="3.889" width="229.444" x="24.111" y="87.111"/><rect height="28.778" rx="3.889" stroke="#c5c9cd" stroke-width=".778" width="228.667" x="24.5" y="87.5"/></g><path d="m28.7777778 87.8888889h54.4444444v28.0000001h-54.4444444c-2.147774 0-3.8888889-1.741115-3.8888889-3.888889v-20.2222222c0-2.147774 1.7411149-3.8888889 3.8888889-3.8888889z" fill="#f2f3f5"/><rect fill="#fff" height="29.556" rx="3.889" width="229.444" x="23.333" y="128.333"/><rect height="28.778" rx="3.889" stroke="#c5c9cd" stroke-width=".778" width="228.667" x="23.722" y="128.722"/><g opacity=".552"><rect fill="#fff" height="29.556" rx="3.889" width="229.444" x="23.333" y="169.556"/><rect height="28.778" rx="3.889" stroke="#c5c9cd" stroke-width=".778" width="228.667" x="23.722" y="169.944"/></g><g opacity=".552"><rect fill="#fff" height="29.556" rx="3.889" width="229.444" x="23.333" y="210.778"/><rect height="28.778" rx="3.889" stroke="#c5c9cd" stroke-width=".778" width="228.667" x="23.722" y="211.167"/></g><g opacity=".552"><rect fill="#fff" height="59.111" rx="3.889" width="229.444" x="23.333" y="252"/><rect height="58.333" rx="3.889" stroke="#c5c9cd" stroke-width=".778" width="228.667" x="23.722" y="252.389"/></g><g transform="translate(330.556 38.889)"><use fill="#000" filter="url(#e)" xlink:href="#d"/><use fill="#fff" xlink:href="#d"/></g><text fill="#fff" font-family="YekanBalkhBold" font-size="9.333"><tspan x="346.435" y="135">پرداخت به</tspan></text><text fill="#fff" font-family="YekanBalkhBold" font-size="13" font-weight="400"><tspan x="328" y="156">مصطفی امیری</tspan></text><g transform="translate(23.333 322.778)"><use fill="#000" filter="url(#g)" xlink:href="#f"/><use fill="#2ecc71" xlink:href="#f"/><text fill="#fff" font-family="YekanBalkhMedium" font-size="12.444"><tspan x="95.667" y="19.444">پرداخت</tspan></text></g><g fill="#5a627a"><text font-family="YekanBalkhBold" font-size="9.333" font-weight="400"><tspan x="23.833" y="69.889">جهت پرداخت وجه به مصطفی امیری ، فرم زیر را تکمیل نمایید.</tspan></text><g font-family="YekanBalkhMedium" font-size="10.889"><text font-weight="400" letter-spacing="-1.167"><tspan x="163.692" y="105.333">0</tspan></text><text><tspan x="168.222" y="145.778">نام پرداخت کننده</tspan></text><text><tspan x="185.5" y="187">شماره موبایل</tspan></text><text><tspan x="217.056" y="228.222">ایمیل</tspan></text><text><tspan x="197" y="269.444">توضیحات</tspan></text><text><tspan x="41.278" y="103.778">تومان</tspan></text></g><text font-family="YekanBalkhBold" font-size="9.333" font-weight="400"><tspan x="74.722" y="25.556">امنیت و ضمانت پرداخت شما</tspan></text></g><path d="m49.3192071 6.88874242c.6420202 0 1.1624242.52075758 1.1624242 1.16277778v6.2522727c0 .6420202-.520404 1.1627778-1.1624242 1.1627778s-1.1624243-.5207576-1.1624243-1.1627778v-6.2522727c0-.6420202.5204041-1.16277778 1.1624243-1.16277778zm-39.3822475-5.3865707.0781313 6.49727272c0 .00176768.0003535.00318182.0003535.00459596v2.4022727c0 2.7883334-2.24636359 5.0569697-5.0074747 5.0569697-2.76146465 0-5.00782829-2.2686363-5.00782829-5.0569697v-4.04409088c0-.6420202.52005051-1.16277778 1.16242425-1.16277778.6420202 0 1.16242424.52075758 1.16242424 1.16277778v4.04409088c0 1.5060606 1.20343434 2.7317677 2.6829798 2.7317677 1.47883838 0 2.68262626-1.2257071 2.68262626-2.7317677v-2.34111108l-.07848485-6.53510101c-.00777778-.6420202.50626263-1.16878788 1.14863636-1.17656566h.01414142c.63565656 0 1.15464646.51121213 1.16207071 1.14863637zm29.4922374 5.3865707c.6420202 0 1.1624242.52075758 1.1624242 1.16277778 0 .64166667-.520404 1.16242424-1.1624242 1.16242424h-5.9284344v.99590906c0 2.8965152-2.3566666 5.2531819-5.2531818 5.2531819-2.8965151 0-5.2531818-2.3566667-5.2531818-5.2531819v-3.84787875c0-.6420202.5200505-1.16242424 1.1624242-1.16242424.6420202 0 1.1624243.52040404 1.1624243 1.16242424v3.84787875c0 1.614596 1.3137373 2.9279798 2.9283333 2.9279798s2.9283333-1.3133838 2.9283333-2.9279798v-3.84787875c0-.6420202.5204041-1.16242424 1.1624243-1.16242424.6423737 0 1.1624242.52040404 1.1624242 1.16242424v.52676767zm-19.8808485 0c.6420202 0 1.1624242.52075758 1.1624242 1.16277778 0 .64166667-.520404 1.16242424-1.1624242 1.16242424h-6.2526263-.0003535c-.0795455 0-.1576768-.00813131-.2329798-.02333333-.0205051-.00424242-.0388889-.01308081-.0590404-.01838384-.0537374-.01414141-.1078283-.02792929-.1583839-.04914141-.0247474-.01025253-.0466666-.02580808-.070707-.03818182-.0427778-.02156566-.0866162-.04171717-.1262121-.06823232-.0233334-.01555556-.0431314-.03606061-.0650506-.05303031-.0364141-.02863636-.0738888-.05585858-.1067676-.0880303-.019798-.01979798-.035-.04277778-.0530303-.06363636-.0304041-.035-.0625758-.0689394-.0887374-.10782829-.0159091-.02333333-.0268687-.04949494-.0410101-.07388888-.0233333-.04030303-.0480808-.07919192-.0664647-.12232324-.0120202-.02828282-.0187373-.0590404-.0282828-.08838383-.0144949-.04242425-.0307576-.08378788-.0399495-.12833334-.0070707-.03287879-.0074242-.06787879-.0116666-.10146464-.004596-.04136364-.0134344-.08166667-.0137879-.12444445l-.0781313-6.53510101c-.0077778-.6420202.5062626-1.16878788 1.1486363-1.17656566h.0141414c.6356566 0 1.154293.51121213 1.1620708 1.14863637l.0643434 5.38646464zm24.6228535 0c.6420202 0 1.1624243.52075758 1.1624243 1.16277778v6.2522727c0 .6420202-.5204041 1.1627778-1.1624243 1.1627778s-1.1624242-.5207576-1.1624242-1.1627778v-6.2522727c0-.6420202.520404-1.16277778 1.1624242-1.16277778zm-15.9246111 2.25481314c-.2863636 0-.5691919-.11666667-.7707071-.31818182-.2050505-.20505051-.3217171-.48787879-.3217171-.77424243 0-.28636363.1166666-.56919192.3217171-.77070707.4030303-.40656565 1.1383839-.41010101 1.5449495 0 .2015152.20151515.3181819.48434344.3181819.77070707 0 .28636364-.1166667.56919192-.3181819.77424243-.2050505.20151515-.4843434.31818182-.7742424.31818182zm21.0705657-3.65202021c-.2863637 0-.5688384-.11666666-.7707071-.31818181-.2015152-.20505051-.3217172-.48787879-.3217172-.77424243s.120202-.56919192.3217172-.77070707c.2545454-.25454545.6328283-.37121212.9863636-.30050505.0710606.01414141.1378788.03535354.2050505.06363636.0636364.02828283.1276263.06010101.1877273.0989899.060101.04242424.1166667.08838384.1658081.13787879.2018687.20151515.3185353.48434343.3185353.77070707 0 .28989899-.1166666.56919192-.3185353.77424243-.0491414.04949494-.1057071.09545454-.1658081.13434343s-.1240909.07424242-.1877273.10252525c-.0671717.02474748-.1375252.0459596-.2050505.06010101-.070707.01414142-.1449495.02121212-.2156565.02121212zm-31.7615808 8.34346975c.0282828.0671717.0459596.1343434.060101.2050505.0141414.070707.0247474.1414141.0247474.2121212 0 .070707-.010606.1449495-.0247474.2156565-.0141414.0671718-.0318182.1378788-.060101.2015152-.0282829.0671717-.0601011.1308081-.0986364.1909091-.0424242.060101-.0883838.1131313-.1382323.1661616-.049495.0494949-.1060606.0954545-.1661616.1343434-.0601011.0388889-.1233839.0742425-.1873738.1025253-.0668182.0247475-.1343434.0459596-.2050505.060101s-.1410606.0212121-.2121212.0212121c-.0707071 0-.1449495-.0070707-.2156566-.0212121-.0668181-.0141414-.1378788-.0353535-.2011616-.060101-.0675252-.0282828-.1308081-.0636364-.1909091-.1025253s-.1166666-.0848485-.1665151-.1343434c-.049495-.0530303-.0954546-.1060606-.1343435-.1661616-.0385353-.060101-.0742424-.1237374-.1025252-.1909091-.024394-.0636364-.0459596-.1343434-.060101-.2015152-.0141414-.070707-.0208586-.1449495-.0208586-.2156565 0-.0707071.0067172-.1414142.0208586-.2121212.0141414-.0707071.035707-.1378788.060101-.2050505.0282828-.0636364.0639899-.1272728.1025252-.1873738.0388889-.060101.0848485-.1166667.1343435-.1661616.0498485-.049495.1064141-.0954545.1665151-.1378788.060101-.0388889.1233839-.0707071.1870202-.0989899.0671717-.0282828.1382324-.0494949.2050505-.0636364.1414142-.0282828.2867172-.0282828.4277778 0 .0707071.0141415.1382323.0353536.2050505.0636364.0639899.0282828.1272727.060101.1873738.0989899.060101.0424243.1166666.0883838.1661616.1378788.0498485.0494949.0958081.1060606.1382323.1661616.0385353.060101.0703535.1237374.0986364.1873738zm21.8736212-2.697793c.5027272 0 .91.4076263.91.9103536 0 .5027272-.4072728.91-.91.91h-3.1263132c-.5027272 0-.91-.4072728-.91-.91 0-.5027273.4072728-.9103536.91-.9103536zm-21.3187829-.3644242c.5027273 0 .91.4076262.91.9103535s-.4072727.91-.91.91h-3.1263131c-.5027273 0-.91-.4072727-.91-.91s.4072727-.9103535.91-.9103535z" fill="url(#c)" transform="translate(188.222 15.556)"/></g></g></svg>