<svg xmlns="http://www.w3.org/2000/svg"  viewBox="0 0 60 60"><g transform="translate(-635 -310)"><rect width="60" height="60" rx="17" transform="translate(635 310)" fill="#eff4fe"/><g transform="translate(650 320)"><path d="M0,0H6V11H3.121a3.064,3.064,0,0,1-2.208-.949A3.3,3.3,0,0,1,0,7.759Z" transform="translate(0 18)" fill="none" stroke="#28457b" stroke-linecap="round" stroke-linejoin="round" stroke-miterlimit="10" stroke-width="3"/><path d="M0,0H6V7.762a3.3,3.3,0,0,1-.914,2.29A3.063,3.063,0,0,1,2.88,11H0Z" transform="translate(24 18)" fill="none" stroke="#28457b" stroke-linecap="round" stroke-linejoin="round" stroke-miterlimit="10" stroke-width="3"/><path d="M0,21V15.013A15.051,15.051,0,0,1,15,0h0A15.05,15.05,0,0,1,30,15.011V21" fill="none" stroke="#28457b" stroke-linecap="round" stroke-linejoin="round" stroke-miterlimit="10" stroke-width="3"/><path d="M0,0V.491A7.173,7.173,0,0,0,7.187,7.65h4.555" transform="translate(3.224 29.89)" fill="none" stroke="#28457b" stroke-linecap="round" stroke-linejoin="round" stroke-miterlimit="10" stroke-width="3"/><rect width="8" height="5" rx="2.5" transform="translate(12 35)" fill="#28457b"/></g></g></svg>