<svg xmlns="http://www.w3.org/2000/svg" viewBox="0 0 60 60"><g transform="translate(-635 -0.5)"><rect width="60" height="60" rx="17" transform="translate(635 0.5)" fill="#eff4fe"/><g transform="translate(650 15.5)"><path d="M30,15a4.732,4.732,0,0,0-3.8-4.637A4.733,4.733,0,0,0,19.638,3.8a4.73,4.73,0,0,0-9.276,0,4.727,4.727,0,0,0-6.616,6.467l.06.094A4.735,4.735,0,0,0,3.8,19.646a4.732,4.732,0,0,0,6.562,6.56,4.721,4.721,0,0,0,9.207.227l.048-.284.13.122a4.724,4.724,0,0,0,6.505-6.528l-.055-.108A4.733,4.733,0,0,0,30,15Z" transform="translate(0 0)" fill="none" stroke="#28457b" stroke-linecap="square" stroke-linejoin="round" stroke-miterlimit="10" stroke-width="3"/><path d="M0,3.5,2.653,6,9,0" transform="translate(11 12)" fill="none" stroke="#28457b" stroke-linecap="square" stroke-miterlimit="10" stroke-width="3"/></g></g></svg>