<?xml version="1.0" encoding="UTF-8"?>
<svg   viewBox="0 0 12 12" version="1.1" xmlns="http://www.w3.org/2000/svg" xmlns:xlink="http://www.w3.org/1999/xlink">
    <!-- Generator: Sketch 61 (89581) - https://sketch.com -->
    <title>Shape</title>
    <desc>Created with Sketch.</desc>
    <g id="Symbols" stroke="none" stroke-width="1" fill="none" fill-rule="evenodd">
        <g id="Rectangle-2" transform="translate(-20.000000, -15.000000)" fill="#274377" fill-rule="nonzero">
            <path d="M26.8978909,26.1962446 L26.3033144,26.8062743 C26.0515567,27.0645752 25.6444593,27.0645752 25.39538,26.8062743 L20.1888182,21.4671399 C19.9370606,21.208839 19.9370606,20.791161 20.1888182,20.535608 L25.39538,15.1937257 C25.6471376,14.9354248 26.054235,14.9354248 26.3033144,15.1937257 L26.8978909,15.8037554 C27.1523267,16.0648042 27.1469702,16.4907259 26.8871778,16.7462789 L23.6598594,19.9008473 L31.3572146,19.9008473 C31.7134248,19.9008473 32,20.1948706 32,20.5603389 L32,21.4396611 C32,21.8051294 31.7134248,22.0991527 31.3572146,22.0991527 L23.6598594,22.0991527 L26.8871778,25.2537211 C27.1496485,25.5092741 27.155005,25.9351958 26.8978909,26.1962446 Z" id="Shape"></path>
        </g>
    </g>
</svg>
