<svg xmlns="http://www.w3.org/2000/svg" ><defs><linearGradient id="a" x1="1" y1=".5" x2="0" y2=".5" gradientUnits="objectBoundingBox"><stop offset="0" stop-color="#ffd900" stop-opacity=".251"/><stop offset="1" stop-color="#ffe422" stop-opacity=".251"/></linearGradient><linearGradient id="b" x1="1" y1=".5" x2="0" y2=".5" gradientUnits="objectBoundingBox"><stop offset="0" stop-color="#ffd900" stop-opacity=".149"/><stop offset="1" stop-color="#ffe422" stop-opacity=".149"/></linearGradient><linearGradient id="c" x1="1" y1=".5" x2="0" y2=".5" gradientUnits="objectBoundingBox"><stop offset="0" stop-color="#ffd900"/><stop offset="1" stop-color="#ffe422"/></linearGradient></defs><rect width="360.073" height="200.041" rx="14.289" transform="translate(24.87 46.496)" fill="url(#a)"/><rect width="309.252" height="171.927" rx="12.28" transform="translate(49.74 94.073)" fill="url(#b)"/><rect width="408.732" height="227.073" rx="16.22" fill="url(#c)"/><path d="M259.894 130.094v-15.211a2.828 2.828 0 115.656 0v15.211a2.828 2.828 0 11-5.656 0zm-12.525 0v-15.211a2.829 2.829 0 115.657 0v15.211a2.829 2.829 0 11-5.657 0zm-48.694-9.96v-5.037a2.829 2.829 0 015.657 0v5.037a7.125 7.125 0 0014.249 0v-9.362a2.829 2.829 0 015.657 0v1.282h12.26a2.829 2.829 0 010 5.657h-12.266v2.423a12.781 12.781 0 01-25.562 0zm-55.943.478v-5.514a2.829 2.829 0 115.657 0v5.513a6.6 6.6 0 006.526 6.643 6.6 6.6 0 006.527-6.646v-5.7l-.191-15.9a2.828 2.828 0 115.656-.068l.191 15.818v5.845a12.257 12.257 0 01-12.183 12.3 12.257 12.257 0 01-12.183-12.291zm38.654 11.962a3.159 3.159 0 01-.49-.146 2.979 2.979 0 01-.464-.249 2.514 2.514 0 01-.4-.327 2.986 2.986 0 01-.328-.405 3.1 3.1 0 01-.249-.464 3.293 3.293 0 01-.146-.49 2.735 2.735 0 01-.051-.525 2.639 2.639 0 01.051-.517 3.373 3.373 0 01.146-.5 3.58 3.58 0 01.249-.456 2.551 2.551 0 01.328-.4 3.1 3.1 0 01.4-.336 3.235 3.235 0 01.455-.24 2.746 2.746 0 01.5-.155 2.629 2.629 0 011.04 0 2.5 2.5 0 01.5.155 3.254 3.254 0 01.456.24 3.15 3.15 0 01.4.336 3.083 3.083 0 01.337.4 3.4 3.4 0 01.239.456 2.493 2.493 0 01.147.5 2.652 2.652 0 01.06.517 2.751 2.751 0 01-.06.525 2.429 2.429 0 01-.147.49 2.975 2.975 0 01-.239.464 3.736 3.736 0 01-.337.405 2.547 2.547 0 01-.4.327 3.415 3.415 0 01-.456.249 3.237 3.237 0 01-.5.146 2.564 2.564 0 01-.516.052 2.653 2.653 0 01-.525-.052zm48.586-5.755a2.215 2.215 0 010-4.429h7.606a2.215 2.215 0 010 4.429zm-51.867-.886a2.215 2.215 0 010-4.429h7.606a2.215 2.215 0 010 4.429zm-3.028-8.222a2.862 2.862 0 01-.566-.057c-.05-.011-.1-.032-.144-.045a2.772 2.772 0 01-.385-.12c-.06-.024-.113-.062-.172-.093a2.972 2.972 0 01-.308-.166c-.057-.038-.1-.088-.157-.13a2.99 2.99 0 01-.26-.214c-.049-.048-.086-.1-.129-.155a2.51 2.51 0 01-.216-.262c-.039-.057-.066-.121-.1-.18a2.8 2.8 0 01-.162-.3c-.029-.068-.045-.143-.068-.215a2.6 2.6 0 01-.1-.311c-.017-.08-.018-.166-.029-.247a3.017 3.017 0 01-.033-.3l-.19-15.9a2.828 2.828 0 115.656-.068l.157 13.1h10.261a2.829 2.829 0 010 5.657zm34.5-.945a2.688 2.688 0 01-.783-1.884 2.652 2.652 0 01.783-1.876 2.743 2.743 0 013.758 0 2.678 2.678 0 01.774 1.876 2.643 2.643 0 01-2.658 2.658 2.681 2.681 0 01-1.872-.774zm51.263-8.886a2.722 2.722 0 01-.783-1.884 2.67 2.67 0 013.182-2.606 2.651 2.651 0 01.5.155 3.358 3.358 0 01.456.241 3.022 3.022 0 01.4.336 2.666 2.666 0 010 3.758 2.415 2.415 0 01-.4.327 3.316 3.316 0 01-.456.249 3.576 3.576 0 01-.5.147 2.728 2.728 0 01-.525.051 2.679 2.679 0 01-1.872-.774z" fill="#303030"/></svg>
