<svg fill="none" height="286" viewBox="0 0 439 286" width="439" xmlns="http://www.w3.org/2000/svg" xmlns:xlink="http://www.w3.org/1999/xlink"><linearGradient id="a"><stop offset="0" stop-color="#fce275"/><stop offset="1" stop-color="#ffe77c"/></linearGradient><linearGradient id="b" gradientUnits="userSpaceOnUse" x1="367.561" x2="352.431" xlink:href="#a" y1="161.981" y2="182.431"/><linearGradient id="c"><stop offset="0" stop-color="#fedd62"/><stop offset="1" stop-color="#ffc22f"/></linearGradient><linearGradient id="d" gradientUnits="userSpaceOnUse" x1="366.1" x2="353.2" xlink:href="#c" y1="161" y2="182.78"/><linearGradient id="e" gradientUnits="userSpaceOnUse" x1="17064.3" x2="16645" xlink:href="#a" y1="8534.56" y2="9577.71"/><linearGradient id="f" gradientUnits="userSpaceOnUse" x1="16468.3" x2="16544.7" xlink:href="#c" y1="1040.86" y2="1820.43"/><linearGradient id="g" gradientUnits="userSpaceOnUse" x1="17010.8" x2="16591.5" xlink:href="#a" y1="8199.06" y2="9242.21"/><linearGradient id="h" gradientUnits="userSpaceOnUse" x1="16506.5" x2="16582.9" xlink:href="#c" y1="826.417" y2="1606"/><linearGradient id="i" gradientUnits="userSpaceOnUse" x1="16955.8" x2="16536.5" xlink:href="#a" y1="7855.57" y2="8898.72"/><linearGradient id="j" gradientUnits="userSpaceOnUse" x1="16545.9" x2="16622.3" xlink:href="#c" y1="606.815" y2="1386.39"/><linearGradient id="k" gradientUnits="userSpaceOnUse" x1="16900.1" x2="16480.8" xlink:href="#a" y1="7503.79" y2="8546.94"/><linearGradient id="l" gradientUnits="userSpaceOnUse" x1="16585.8" x2="16662.2" xlink:href="#c" y1="381.741" y2="1161.31"/><linearGradient id="m" gradientUnits="userSpaceOnUse" x1="18422.1" x2="18790.7" xlink:href="#a" y1="-8442.33" y2="-7626.42"/><linearGradient id="n" gradientUnits="userSpaceOnUse" x1="15217.9" x2="15552.2" xlink:href="#c" y1="-6147.99" y2="-5480.63"/><path d="m397.18 25.06h-354.1799c-7.7707 0-14.07 6.2994-14.07 14.07v202.31c0 7.771 6.2993 14.07 14.07 14.07h354.1799c7.771 0 14.07-6.299 14.07-14.07v-202.31c0-7.7706-6.299-14.07-14.07-14.07z" fill="#ededed"/><path d="m424.11.450012h-354.18c-7.7707 0-14.07 6.299348-14.07 14.069988v202.31c0 7.771 6.2993 14.07 14.07 14.07h354.18c7.771 0 14.07-6.299 14.07-14.07v-202.31c0-7.77064-6.299-14.069988-14.07-14.069988z" fill="#f2f3f5"/><path d="m407.82 49.02h-322.82c-4.1532 0-7.52 3.3668-7.52 7.52v121.28c0 4.153 3.3668 7.52 7.52 7.52h322.82c4.153 0 7.52-3.367 7.52-7.52v-121.28c0-4.1532-3.367-7.52-7.52-7.52z" fill="#fff"/><path d="m351.35 101.27c10.217 0 18.5-8.2827 18.5-18.5 0-10.2172-8.283-18.5-18.5-18.5s-18.5 8.2828-18.5 18.5c0 10.2173 8.283 18.5 18.5 18.5z" fill="#f4f6f9"/><path d="m351.17 84.35c3.154 0 5.71-2.5565 5.71-5.71 0-3.1536-2.556-5.71-5.71-5.71s-5.71 2.5564-5.71 5.71c0 3.1535 2.556 5.71 5.71 5.71z" fill="#5b75a0"/><path clip-rule="evenodd" d="m366.251 93.7354c-3.368 4.5699-8.788 7.5346-14.901 7.5346-6.147 0-11.593-2.9975-14.957-7.6104 14.999-16.7525 29.857.0704 29.857.0704z" fill="#5b75a0" fill-rule="evenodd"/><path d="m387.22 109.77h-71c-2.485 0-4.5 2.015-4.5 4.5s2.015 4.5 4.5 4.5h71c2.485 0 4.5-2.015 4.5-4.5s-2.015-4.5-4.5-4.5z" fill="#d8d8d8"/><path d="m387.22 122.77h-71c-2.485 0-4.5 2.015-4.5 4.5s2.015 4.5 4.5 4.5h71c2.485 0 4.5-2.015 4.5-4.5s-2.015-4.5-4.5-4.5z" fill="#d8d8d8"/><path d="m166.28 154.62c20.02 0 36.25-16.279 36.25-36.36s-16.23-36.36-36.25-36.36-36.25 16.279-36.25 36.36 16.23 36.36 36.25 36.36z" fill="#5b75a0"/><path d="m188.82 100.1h-4.38c-.672-.001-1.327.214-1.867.614s-.938.963-1.133 1.606l-7.08 23.11 1.78 3.94c.089.197.127.413.11.628-.016.215-.086.423-.204.604-.117.181-.278.33-.468.432-.19.103-.402.157-.618.156h-22.66" stroke="#fff" stroke-miterlimit="10" stroke-width="3"/><path d="m179.62 107.03h-31.25l3.99 17.4h22.83" stroke="#fff" stroke-miterlimit="10" stroke-width="3"/><path d="m157.84 107.3 3.05 16.85" stroke="#fff" stroke-miterlimit="10" stroke-width="3"/><path d="m170.26 107.03-2.72 17.4" stroke="#fff" stroke-miterlimit="10" stroke-width="3"/><path d="m174.19 137.96c1.624 0 2.94-1.316 2.94-2.94s-1.316-2.94-2.94-2.94-2.94 1.316-2.94 2.94 1.316 2.94 2.94 2.94z" stroke="#fff" stroke-miterlimit="10" stroke-width="3"/><path d="m157.34 137.96c1.624 0 2.94-1.316 2.94-2.94s-1.316-2.94-2.94-2.94-2.94 1.316-2.94 2.94 1.316 2.94 2.94 2.94z" stroke="#fff" stroke-miterlimit="10" stroke-width="3"/><path d="m119.71 33.04c2.756 0 4.99-2.2341 4.99-4.99s-2.234-4.99-4.99-4.99-4.99 2.2341-4.99 4.99 2.234 4.99 4.99 4.99z" fill="#fff"/><path d="m101.5 33.04c2.756 0 4.99-2.2341 4.99-4.99s-2.234-4.99-4.99-4.99c-2.7559 0-4.99 2.2341-4.99 4.99s2.2341 4.99 4.99 4.99z" fill="#fff"/><path d="m83.63 33.04c2.7559 0 4.99-2.2341 4.99-4.99s-2.2341-4.99-4.99-4.99-4.99 2.2341-4.99 4.99 2.2341 4.99 4.99 4.99z" fill="#fff"/><g fill="#234580"><path d="m17.58 69.66c.8506 0 1.54-.6895 1.54-1.54s-.6894-1.54-1.54-1.54c-.8505 0-1.54.6895-1.54 1.54s.6895 1.54 1.54 1.54z"/><path d="m1.54 69.66c.85052 0 1.54-.6895 1.54-1.54s-.68948-1.54-1.54-1.54c-.850519 0-1.54.6895-1.54 1.54s.689481 1.54 1.54 1.54z"/><path d="m17.58 82.6301c.8506 0 1.54-.6895 1.54-1.5401 0-.8505-.6894-1.54-1.54-1.54-.8505 0-1.54.6895-1.54 1.54 0 .8506.6895 1.5401 1.54 1.5401z"/><path d="m1.54 82.6301c.85052 0 1.54-.6895 1.54-1.5401 0-.8505-.68948-1.54-1.54-1.54-.850519 0-1.54.6895-1.54 1.54 0 .8506.689481 1.5401 1.54 1.5401z"/><path d="m17.58 98.59c.8506 0 1.54-.6895 1.54-1.54s-.6894-1.54-1.54-1.54c-.8505 0-1.54.6895-1.54 1.54s.6895 1.54 1.54 1.54z"/><path d="m1.54 98.59c.85052 0 1.54-.6895 1.54-1.54s-.68948-1.54-1.54-1.54c-.850519 0-1.54.6895-1.54 1.54s.689481 1.54 1.54 1.54z"/><path d="m17.58 113.56c.8506 0 1.54-.689 1.54-1.54s-.6894-1.54-1.54-1.54c-.8505 0-1.54.689-1.54 1.54s.6895 1.54 1.54 1.54z"/><path d="m1.54 113.56c.85052 0 1.54-.689 1.54-1.54s-.68948-1.54-1.54-1.54c-.850519 0-1.54.689-1.54 1.54s.689481 1.54 1.54 1.54z"/><path d="m17.58 129.6c.8506 0 1.54-.689 1.54-1.54s-.6894-1.54-1.54-1.54c-.8505 0-1.54.689-1.54 1.54s.6895 1.54 1.54 1.54z"/><path d="m1.54 129.6c.85052 0 1.54-.689 1.54-1.54s-.68948-1.54-1.54-1.54c-.850519 0-1.54.689-1.54 1.54s.689481 1.54 1.54 1.54z"/><path d="m17.58 144.56c.8506 0 1.54-.689 1.54-1.54s-.6894-1.54-1.54-1.54c-.8505 0-1.54.689-1.54 1.54s.6895 1.54 1.54 1.54z"/><path d="m1.54 144.56c.85052 0 1.54-.689 1.54-1.54s-.68948-1.54-1.54-1.54c-.850519 0-1.54.689-1.54 1.54s.689481 1.54 1.54 1.54z"/><path d="m17.58 159.7c.8506 0 1.54-.689 1.54-1.54s-.6894-1.54-1.54-1.54c-.8505 0-1.54.689-1.54 1.54s.6895 1.54 1.54 1.54z"/><path d="m1.54 159.7c.85052 0 1.54-.689 1.54-1.54s-.68948-1.54-1.54-1.54c-.850519 0-1.54.689-1.54 1.54s.689481 1.54 1.54 1.54z"/><path d="m17.58 175.66c.8506 0 1.54-.689 1.54-1.54s-.6894-1.54-1.54-1.54c-.8505 0-1.54.689-1.54 1.54s.6895 1.54 1.54 1.54z"/><path d="m1.54 175.66c.85052 0 1.54-.689 1.54-1.54s-.68948-1.54-1.54-1.54c-.850519 0-1.54.689-1.54 1.54s.689481 1.54 1.54 1.54z"/><path d="m17.58 190.7c.8506 0 1.54-.689 1.54-1.54s-.6894-1.54-1.54-1.54c-.8505 0-1.54.689-1.54 1.54s.6895 1.54 1.54 1.54z"/><path d="m1.54 190.7c.85052 0 1.54-.689 1.54-1.54s-.68948-1.54-1.54-1.54c-.850519 0-1.54.689-1.54 1.54s.689481 1.54 1.54 1.54z"/><path d="m17.58 206.67c.8506 0 1.54-.689 1.54-1.54 0-.85-.6894-1.54-1.54-1.54-.8505 0-1.54.69-1.54 1.54 0 .851.6895 1.54 1.54 1.54z"/><path d="m1.54 206.67c.85052 0 1.54-.689 1.54-1.54 0-.85-.68948-1.54-1.54-1.54-.850519 0-1.54.69-1.54 1.54 0 .851.689481 1.54 1.54 1.54z"/><path d="m17.58 221.63c.8506 0 1.54-.689 1.54-1.54s-.6894-1.54-1.54-1.54c-.8505 0-1.54.689-1.54 1.54s.6895 1.54 1.54 1.54z"/><path d="m1.54 221.63c.85052 0 1.54-.689 1.54-1.54s-.68948-1.54-1.54-1.54c-.850519 0-1.54.689-1.54 1.54s.689481 1.54 1.54 1.54z"/><path d="m17.58 236.68c.8506 0 1.54-.689 1.54-1.54 0-.85-.6894-1.54-1.54-1.54-.8505 0-1.54.69-1.54 1.54 0 .851.6895 1.54 1.54 1.54z"/><path d="m1.54 236.68c.85052 0 1.54-.689 1.54-1.54 0-.85-.68948-1.54-1.54-1.54-.850519 0-1.54.69-1.54 1.54 0 .851.689481 1.54 1.54 1.54z"/><path d="m17.58 252.72c.8506 0 1.54-.689 1.54-1.54s-.6894-1.54-1.54-1.54c-.8505 0-1.54.689-1.54 1.54s.6895 1.54 1.54 1.54z"/><path d="m1.54 252.72c.85052 0 1.54-.689 1.54-1.54s-.68948-1.54-1.54-1.54c-.850519 0-1.54.689-1.54 1.54s.689481 1.54 1.54 1.54z"/><path d="m17.58 267.69c.8506 0 1.54-.689 1.54-1.54s-.6894-1.54-1.54-1.54c-.8505 0-1.54.689-1.54 1.54s.6895 1.54 1.54 1.54z"/><path d="m1.54 267.69c.85052 0 1.54-.689 1.54-1.54s-.68948-1.54-1.54-1.54c-.850519 0-1.54.689-1.54 1.54s.689481 1.54 1.54 1.54z"/><path d="m17.58 283.73c.8506 0 1.54-.689 1.54-1.54 0-.85-.6894-1.54-1.54-1.54-.8505 0-1.54.69-1.54 1.54 0 .851.6895 1.54 1.54 1.54z"/><path d="m1.54 283.73c.85052 0 1.54-.689 1.54-1.54 0-.85-.68948-1.54-1.54-1.54-.850519 0-1.54.69-1.54 1.54 0 .851.689481 1.54 1.54 1.54z"/><path d="m48.68 267.69c.8505 0 1.54-.689 1.54-1.54s-.6895-1.54-1.54-1.54-1.54.689-1.54 1.54.6895 1.54 1.54 1.54z"/><path d="m32.63 267.69c.8505 0 1.54-.689 1.54-1.54s-.6895-1.54-1.54-1.54c-.8506 0-1.54.689-1.54 1.54s.6894 1.54 1.54 1.54z"/><path d="m48.68 283.73c.8505 0 1.54-.689 1.54-1.54 0-.85-.6895-1.54-1.54-1.54s-1.54.69-1.54 1.54c0 .851.6895 1.54 1.54 1.54z"/><path d="m32.63 283.73c.8505 0 1.54-.689 1.54-1.54 0-.85-.6895-1.54-1.54-1.54-.8506 0-1.54.69-1.54 1.54 0 .851.6894 1.54 1.54 1.54z"/><path d="m79.69 267.69c.8505 0 1.54-.689 1.54-1.54s-.6895-1.54-1.54-1.54-1.54.689-1.54 1.54.6895 1.54 1.54 1.54z"/><path d="m63.64 267.69c.8505 0 1.54-.689 1.54-1.54s-.6895-1.54-1.54-1.54-1.54.689-1.54 1.54.6895 1.54 1.54 1.54z"/><path d="m79.69 283.73c.8505 0 1.54-.689 1.54-1.54 0-.85-.6895-1.54-1.54-1.54s-1.54.69-1.54 1.54c0 .851.6895 1.54 1.54 1.54z"/><path d="m63.64 283.73c.8505 0 1.54-.689 1.54-1.54 0-.85-.6895-1.54-1.54-1.54s-1.54.69-1.54 1.54c0 .851.6895 1.54 1.54 1.54z"/><path d="m109.69 267.69c.851 0 1.54-.689 1.54-1.54s-.689-1.54-1.54-1.54c-.85 0-1.54.689-1.54 1.54s.69 1.54 1.54 1.54z"/><path d="m94.65 267.69c.8505 0 1.54-.689 1.54-1.54s-.6895-1.54-1.54-1.54-1.54.689-1.54 1.54.6895 1.54 1.54 1.54z"/><path d="m109.69 283.73c.851 0 1.54-.689 1.54-1.54 0-.85-.689-1.54-1.54-1.54-.85 0-1.54.69-1.54 1.54 0 .851.69 1.54 1.54 1.54z"/><path d="m125.53 267.69c.851 0 1.54-.689 1.54-1.54s-.689-1.54-1.54-1.54-1.54.689-1.54 1.54.689 1.54 1.54 1.54z"/><path d="m125.53 283.73c.851 0 1.54-.689 1.54-1.54 0-.85-.689-1.54-1.54-1.54s-1.54.69-1.54 1.54c0 .851.689 1.54 1.54 1.54z"/><path d="m94.65 283.73c.8505 0 1.54-.689 1.54-1.54 0-.85-.6895-1.54-1.54-1.54s-1.54.69-1.54 1.54c0 .851.6895 1.54 1.54 1.54z"/></g><path d="m304.53 165.28h-163.01c-5.86 0-10.61 4.75-10.61 10.61v96.94c0 5.86 4.75 10.61 10.61 10.61h163.01c5.86 0 10.61-4.75 10.61-10.61v-96.94c0-5.86-4.75-10.61-10.61-10.61z" fill="#ffe57a"/><path d="m167.82 177.03h-18.62c-2.264 0-4.1 1.836-4.1 4.1v7.54c0 2.264 1.836 4.1 4.1 4.1h18.62c2.264 0 4.1-1.836 4.1-4.1v-7.54c0-2.264-1.836-4.1-4.1-4.1z" fill="#fff"/><path d="m297.57 216.49h-148.37c-2.264 0-4.1 1.836-4.1 4.1v7.54c0 2.264 1.836 4.1 4.1 4.1h148.37c2.264 0 4.1-1.836 4.1-4.1v-7.54c0-2.264-1.836-4.1-4.1-4.1z" fill="#fff"/><path d="m299.04 241.32h-39.29c-1.453 0-2.63 1.178-2.63 2.63v6.27c0 1.453 1.177 2.63 2.63 2.63h39.29c1.453 0 2.63-1.177 2.63-2.63v-6.27c0-1.452-1.177-2.63-2.63-2.63z" fill="#fff"/><path d="m299.04 255.28h-39.29c-1.453 0-2.63 1.178-2.63 2.63v6.27c0 1.453 1.177 2.63 2.63 2.63h39.29c1.453 0 2.63-1.177 2.63-2.63v-6.27c0-1.452-1.177-2.63-2.63-2.63z" fill="#fff"/><path d="m186.18 255.28h-38.45c-1.453 0-2.63 1.178-2.63 2.63v6.27c0 1.453 1.177 2.63 2.63 2.63h38.45c1.452 0 2.63-1.177 2.63-2.63v-6.27c0-1.452-1.178-2.63-2.63-2.63z" fill="#fff"/><path d="m229.78 131.47h-24.78v17.79h-12.13l25.77 36.08 25.61-35.91h-14.63s-.5-18.63.16-17.96z" fill="#fbcf54"/><path d="m222.24 119.91h-10.84c0-26.16-21-47.45-46.8-47.45s-46.79 21.29-46.79 47.45h-10.81c0-32.23 25.86-58.45 57.64-58.45s57.6 26.22 57.6 58.45z" fill="#fbcf54"/><path d="m381.43 185.17s-5.66 12.31-20.46 8.65c-4.805-.918-9.381-2.778-13.464-5.473-4.083-2.694-7.592-6.17-10.326-10.227-1.302-1.883-2.147-4.044-2.469-6.311-.321-2.267-.109-4.578.619-6.749.624-1.786 1.507-3.47 2.62-5z" fill="#ffc22f"/><path d="m381.42 185.164c4.297-7.442-1.952-19.094-13.957-26.025s-25.22-6.517-29.517.925c-4.297 7.443 1.952 19.095 13.957 26.026s25.22 6.517 29.517-.926z" fill="url(#b)"/><path d="m367.37 187c-5.005-.239-9.877-1.687-14.2-4.221s-7.967-6.078-10.62-10.329c-2.24-4.05-2.54-7.92-.82-10.89 3.49-6 14.37-6.32 24.25-.61s15.09 15.26 11.6 21.31c-1.71 3-5.21 4.65-9.85 4.74zm-24.78-25c-1.53 2.65-1.23 6.17.83 9.91 2.6 4.139 6.174 7.58 10.41 10.02s9.005 3.807 13.89 3.98c4.27-.08 7.46-1.59 9-4.24 3.22-5.57-1.82-14.52-11.23-20s-19.67-5.32-22.89.25z" fill="url(#d)"/><path d="m385.07 266.23s.42 14.39-14.6 17.92c-4.755 1.399-9.749 1.796-14.665 1.164-4.917-.632-9.648-2.278-13.895-4.834-2.058-1.221-3.809-2.896-5.119-4.898-1.311-2.002-2.146-4.278-2.441-6.652-.238-1.996-.195-4.016.13-6z" fill="#ffc22f"/><path d="m385.036 266.32c.634-9.112-10.174-17.287-24.14-18.259-13.967-.972-25.803 5.628-26.437 14.74-.634 9.113 10.174 17.288 24.141 18.26 13.966.972 25.802-5.628 26.436-14.741z" fill="url(#e)"/><path d="m360.76 277.37c-.7 0-1.42 0-2.14-.07-11.49-.74-20.49-7.36-20.06-14.74.12-1.356.511-2.675 1.15-3.877.639-1.203 1.513-2.265 2.57-3.123 4.07-3.6 10.77-5.48 17.92-5 11.5.74 20.5 7.36 20.07 14.74-.12 1.356-.511 2.675-1.15 3.877-.639 1.203-1.513 2.265-2.57 3.123-3.67 3.23-9.46 5.07-15.79 5.07zm-21.2-14.75c-.4 6.83 8.18 13 19.13 13.69 6.89.45 13.32-1.34 17.2-4.77.958-.778 1.751-1.739 2.331-2.828.581-1.089.937-2.283 1.049-3.512.4-6.83-8.18-13-19.13-13.69-6.89-.45-13.32 1.34-17.2 4.77-.962.774-1.757 1.735-2.338 2.825-.58 1.089-.935 2.285-1.042 3.515z" fill="url(#f)"/><path d="m385.07 259.25s.42 14.39-14.6 17.92c-4.755 1.399-9.749 1.796-14.665 1.164-4.917-.632-9.648-2.278-13.895-4.834-2.051-1.216-3.798-2.884-5.108-4.877s-2.149-4.258-2.452-6.623c-.238-1.996-.195-4.016.13-6z" fill="#ffc22f"/><path d="m385.033 259.346c.634-9.113-10.174-17.288-24.141-18.26-13.966-.971-25.802 5.628-26.436 14.741-.635 9.113 10.174 17.288 24.14 18.26 13.967.971 25.803-5.628 26.437-14.741z" fill="url(#g)"/><path d="m360.77 270.39c-.71 0-1.43 0-2.15-.07-11.49-.74-20.49-7.36-20.06-14.74.12-1.356.511-2.675 1.15-3.877.639-1.203 1.513-2.265 2.57-3.123 4.07-3.61 10.78-5.48 17.92-5 11.5.74 20.5 7.36 20.07 14.74-.121 1.356-.513 2.674-1.151 3.877-.639 1.202-1.513 2.264-2.569 3.123-3.67 3.23-9.46 5.07-15.78 5.07zm-21.21-14.75c-.4 6.83 8.18 13 19.13 13.68 6.89.45 13.32-1.33 17.2-4.76.957-.778 1.749-1.74 2.33-2.829.58-1.089.937-2.282 1.05-3.511.4-6.83-8.18-13-19.13-13.69-6.9-.45-13.32 1.34-17.2 4.77-.962.774-1.757 1.735-2.338 2.825-.58 1.089-.935 2.285-1.042 3.515z" fill="url(#h)"/><path d="m385.07 252.1s.42 14.39-14.6 17.92c-4.754 1.403-9.748 1.802-14.665 1.172-4.916-.631-9.648-2.276-13.895-4.832-2.056-1.223-3.806-2.899-5.117-4.9-1.31-2.002-2.145-4.276-2.443-6.65-.238-1.996-.194-4.016.13-6z" fill="#ffc22f"/><path d="m385.03 252.2c.634-9.113-10.174-17.288-24.14-18.26-13.967-.972-25.803 5.628-26.437 14.741-.634 9.112 10.174 17.288 24.141 18.259 13.966.972 25.802-5.628 26.436-14.74z" fill="url(#i)"/><path d="m360.77 263.24c-.71 0-1.43 0-2.15-.07-11.49-.74-20.49-7.36-20.06-14.74.121-1.356.512-2.674 1.151-3.877.639-1.202 1.513-2.264 2.569-3.123 4.07-3.6 10.78-5.48 17.92-5 11.5.74 20.5 7.36 20.07 14.74-.12 1.356-.511 2.675-1.15 3.877-.639 1.203-1.513 2.265-2.57 3.123-3.67 3.23-9.46 5.07-15.78 5.07zm-21.21-14.75c-.4 6.83 8.18 13 19.13 13.69 6.89.45 13.31-1.34 17.2-4.77.958-.778 1.751-1.739 2.331-2.828.581-1.089.937-2.283 1.049-3.512.4-6.83-8.18-13-19.13-13.68-6.9-.46-13.32 1.33-17.2 4.76-.961.775-1.755 1.736-2.336 2.826-.581 1.089-.936 2.284-1.044 3.514z" fill="url(#j)"/><path d="m385.07 244.78s.42 14.39-14.6 17.92c-4.757 1.398-9.752 1.791-14.669 1.154s-9.648-2.29-13.891-4.854c-2.057-1.22-3.807-2.894-5.117-4.894-1.311-2-2.146-4.273-2.443-6.646-.238-1.996-.194-4.016.13-6z" fill="#ffc22f"/><path d="m385.038 244.872c.634-9.113-10.174-17.288-24.141-18.26-13.966-.972-25.803 5.628-26.437 14.741-.634 9.112 10.175 17.287 24.141 18.259 13.967.972 25.803-5.628 26.437-14.74z" fill="url(#k)"/><path d="m360.77 255.92c-.71 0-1.43 0-2.15-.07-11.49-.74-20.49-7.36-20.06-14.74.121-1.356.512-2.674 1.151-3.877.639-1.202 1.513-2.264 2.569-3.123 4.07-3.6 10.78-5.48 17.92-5 11.5.74 20.5 7.36 20.07 14.74-.12 1.356-.511 2.675-1.15 3.877-.639 1.203-1.513 2.265-2.57 3.123-3.67 3.23-9.46 5.07-15.78 5.07zm-21.21-14.75c-.4 6.83 8.18 13 19.13 13.69 6.89.45 13.32-1.34 17.2-4.77.958-.778 1.751-1.739 2.331-2.828.581-1.089.937-2.283 1.049-3.512.4-6.83-8.18-13-19.13-13.68-6.89-.45-13.32 1.33-17.2 4.76-.961.775-1.755 1.736-2.336 2.826-.581 1.089-.936 2.284-1.044 3.514z" fill="url(#l)"/><path d="m381 210.38s5.57 12.36-6.91 21.12c-3.849 3.017-8.257 5.244-12.969 6.552-4.713 1.307-9.638 1.671-14.491 1.068-2.276-.256-4.461-1.038-6.382-2.284s-3.526-2.922-4.688-4.896c-.919-1.647-1.593-3.419-2-5.26z" fill="#ffc22f"/><path d="m362.268 233.245c13.112-4.499 21.48-14.736 18.691-22.864-2.789-8.129-15.68-11.07-28.792-6.571-13.111 4.499-21.48 14.736-18.69 22.864 2.789 8.129 15.679 11.071 28.791 6.571z" fill="url(#m)"/><path d="m350.64 231.83c-1.619.004-3.235-.161-4.82-.49-4.53-1-7.64-3.3-8.75-6.54s-.09-7 2.89-10.54c3.461-3.707 7.78-6.505 12.578-8.15 4.797-1.644 9.925-2.084 14.932-1.28 4.53 1 7.64 3.29 8.76 6.53s.08 7-2.9 10.54c-3.391 3.785-7.73 6.598-12.57 8.15-3.252 1.146-6.672 1.747-10.12 1.78zm12-26.49c-3.335.034-6.641.612-9.79 1.71-4.668 1.5-8.854 4.212-12.13 7.86-2.75 3.27-3.71 6.67-2.72 9.57 1 2.9 3.85 5 8 5.88 4.829.766 9.772.338 14.397-1.249 4.625-1.586 8.791-4.282 12.133-7.851 2.75-3.27 3.72-6.67 2.72-9.57s-3.84-5-8-5.89c-1.513-.314-3.055-.468-4.6-.46z" fill="url(#n)"/></svg>