<svg xmlns="http://www.w3.org/2000/svg"><defs><filter id="a" x="0" y="0" width="545.939" height="400.33" filterUnits="userSpaceOnUse"><feOffset dx="30" dy="30"/><feGaussianBlur stdDeviation="30" result="b"/><feFlood flood-color="#141b32" flood-opacity=".098"/><feComposite operator="in" in2="b"/><feComposite in="SourceGraphic"/></filter><filter id="b" x="284.513" y="113.997" width="312.198" height="255.678" filterUnits="userSpaceOnUse"><feOffset dx="30" dy="30"/><feGaussianBlur stdDeviation="30" result="d"/><feFlood flood-color="#141b32" flood-opacity=".18"/><feComposite operator="in" in2="d"/><feComposite in="SourceGraphic"/></filter><filter id="f" x="109.309" y="105.561" width="62.318" height="62.318" filterUnits="userSpaceOnUse"><feOffset dy="2"/><feGaussianBlur stdDeviation="4" result="i"/><feFlood flood-color="#7a79ad" flood-opacity=".341"/><feComposite operator="in" in2="i"/><feComposite in="SourceGraphic"/></filter><filter id="g" x="321.017" y="105.561" width="62.318" height="62.318" filterUnits="userSpaceOnUse"><feOffset dy="2"/><feGaussianBlur stdDeviation="4" result="k"/><feFlood flood-color="#7a79ad" flood-opacity=".341"/><feComposite operator="in" in2="k"/><feComposite in="SourceGraphic"/></filter><filter id="h" x="265.456" y="239.675" width="62.318" height="62.318" filterUnits="userSpaceOnUse"><feOffset dy="2"/><feGaussianBlur stdDeviation="4" result="m"/><feFlood flood-color="#7a79ad" flood-opacity=".341"/><feComposite operator="in" in2="m"/><feComposite in="SourceGraphic"/></filter><filter id="i" x="244.381" y="35.631" width="62.318" height="62.318" filterUnits="userSpaceOnUse"><feOffset dy="2"/><feGaussianBlur stdDeviation="4" result="o"/><feFlood flood-color="#7a79ad" flood-opacity=".341"/><feComposite operator="in" in2="o"/><feComposite in="SourceGraphic"/></filter><clipPath id="c"><path d="M0 0h77.99v45.459H0z" fill="none"/></clipPath><clipPath id="d"><path d="M0 0h78.945v45.8H0z" fill="none"/></clipPath><clipPath id="e"><path d="M0 0h46.413v88.621H0z" fill="none"/></clipPath></defs><g transform="translate(7.312 45.631)"><rect width="365.939" height="220.33" rx="14" fill="rgba(229,229,229,0.69)" opacity=".789" transform="translate(26.823 37.36)"/><g transform="translate(52.688 14.369)"><g transform="translate(-60 -60)" filter="url(#a)"><rect width="365.939" height="220.33" rx="14" transform="translate(60 60)" fill="#f2f3f5"/></g><rect width="323.789" height="130.282" rx="8" transform="translate(21.075 45.982)" fill="#fff"/></g><g transform="translate(337.2 128.366)"><g transform="translate(-344.51 -174)" filter="url(#b)"><rect width="132.198" height="75.679" rx="14" transform="translate(344.51 174)" fill="#f2f3f5"/></g><path d="M0 31.613V14A14 14 0 0114 0h25.276v17.612a14 14 0 01-14 14z" fill="#5d7ebc"/><circle cx="11.016" cy="11.016" r="11.016" transform="translate(31.613 15.327)" fill="#ffe47e"/><path d="M121.661 59.393L81.24 20.117 49.473 53.733 31.6 39.755 9.58 59.393z" fill="#fff"/></g><g opacity=".893"><path d="M293.382 121.457a52.074 52.074 0 00-16.904-29.493l-20.164 29.493H252.9v4.994h41.192v-4.994zM263.278 79.374l-2.528 3.279a46.362 46.362 0 00-14.909-4.1l-1.563 40.234 20.83-33.829.245-5.584z" fill="#21264f" opacity=".151"/><g opacity=".151"><path d="M215.614 134.637h77.99v45.459h-77.99z" fill="none"/><g clip-path="url(#c)" transform="translate(215.614 134.637)"><path d="M29.836 0L5.233 31.451l-1.9.678L0 33.547v4.628c7.842 4.91 17.476 7.283 27.44 7.283A50.6 50.6 0 0077.99 0z" fill="#21264f"/></g></g><path d="M265.353 79.21a47.6 47.6 0 00-19.495-6.405l-1.58 40.234z" fill="#ffe06e"/><path d="M215.614 130.884h78.945v45.8h-78.945z" fill="none"/><g clip-path="url(#d)" transform="translate(215.614 130.884)"><path d="M0 37.982A52.1 52.1 0 0027.547 45.8c26.843 0 48.9-20.1 51.4-45.8H29.983z" fill="#496eb4"/></g><path d="M294.092 121.66a52.126 52.126 0 00-17.614-34.486L252.9 121.66z" fill="#6c90d5"/><g opacity=".151"><path d="M187.759 81.739h46.413v88.621h-46.413z" fill="none"/><g clip-path="url(#e)" transform="translate(187.759 81.739)"><path d="M46.413 48.642v-4.016l-.61.8V0C20.1 2.491 0 24.456 0 51.192a51.634 51.634 0 0015.939 37.429L45.245 50.23z" fill="#21264f"/></g></g><path d="M235.657 75.679c-26.34 2.478-46.94 24.321-46.94 50.909a50.635 50.635 0 0016.335 37.223l30.6-38.905z" fill="#2b4982"/></g><g transform="translate(-7.31 -45.63)" filter="url(#f)"><circle cx="19.159" cy="19.159" r="19.159" transform="translate(121.31 115.56)" fill="#fff"/></g><path d="M294.571 102.981l36.4-10.538M269.665 177.701l16.285 40.234" fill="none" stroke="#979797" stroke-miterlimit="10" stroke-width="2" stroke-dasharray="3"/><g transform="translate(-7.31 -45.63)" filter="url(#g)"><circle cx="19.159" cy="19.159" r="19.159" transform="translate(333.02 115.56)" fill="#fff"/></g><path d="M184.886 108.249l-31.134-12.932M257.211 69.451l12.454-57.477" fill="none" stroke="#979797" stroke-miterlimit="10" stroke-width="2" stroke-dasharray="3"/><g transform="translate(-7.31 -45.63)" filter="url(#h)"><circle cx="19.159" cy="19.159" r="19.159" transform="translate(277.46 249.68)" fill="#fff"/></g><rect width="66.099" height="9.58" rx="4.79" transform="translate(87.174 148.483)" fill="#f2f3f5"/><rect width="74.721" height="9.58" rx="4.79" transform="translate(87.174 134.114)" fill="#ffe47e"/><g transform="translate(-7.31 -45.63)" filter="url(#i)"><circle cx="19.159" cy="19.159" r="19.159" transform="translate(256.38 45.63)" fill="#fff"/></g><rect width="87.174" height="9.58" rx="4.79" transform="translate(87.174 162.852)" fill="#f2f3f5"/><path d="M95.796 153.273a.958.958 0 01.958-.958h46.942a.958.958 0 01.958.958.958.958 0 01-.958.958H96.754a.958.958 0 01-.958-.958zM95.796 138.904a.958.958 0 01.958-.958h56.519a.958.958 0 01.958.958.958.958 0 01-.958.958H96.754a.958.958 0 01-.958-.958zM95.796 167.642a.958.958 0 01.958-.958h68.015a.958.958 0 01.958.958.958.958 0 01-.958.958H96.754a.958.958 0 01-.958-.958z" fill="#fff"/><g transform="translate(0 75.679)" fill="#234580"><circle cx="1.437" cy="1.437" r="1.437" transform="translate(0 12.453)"/><circle cx="1.437" cy="1.437" r="1.437" transform="translate(15.327 12.453)"/><circle cx="1.437" cy="1.437" r="1.437" transform="translate(0 27.781)"/><circle cx="1.437" cy="1.437" r="1.437"/><circle cx="1.437" cy="1.437" r="1.437" transform="translate(15.327 27.781)"/><circle cx="1.437" cy="1.437" r="1.437" transform="translate(15.327)"/><circle cx="1.437" cy="1.437" r="1.437" transform="translate(0 42.15)"/><circle cx="1.437" cy="1.437" r="1.437" transform="translate(15.327 42.15)"/><circle cx="1.437" cy="1.437" r="1.437" transform="translate(0 57.477)"/><circle cx="1.437" cy="1.437" r="1.437" transform="translate(15.327 57.477)"/><circle cx="1.437" cy="1.437" r="1.437" transform="translate(0 71.847)"/><circle cx="1.437" cy="1.437" r="1.437" transform="translate(15.327 71.847)"/><circle cx="1.437" cy="1.437" r="1.437" transform="translate(0 86.216)"/><circle cx="1.437" cy="1.437" r="1.437" transform="translate(15.327 86.216)"/><circle cx="1.437" cy="1.437" r="1.437" transform="translate(0 101.543)"/><circle cx="1.437" cy="1.437" r="1.437" transform="translate(15.327 101.543)"/><circle cx="1.437" cy="1.437" r="1.437" transform="translate(0 115.913)"/><circle cx="1.437" cy="1.437" r="1.437" transform="translate(15.327 115.913)"/><circle cx="1.437" cy="1.437" r="1.437" transform="translate(0 131.24)"/><circle cx="1.437" cy="1.437" r="1.437" transform="translate(15.327 131.24)"/><circle cx="1.437" cy="1.437" r="1.437" transform="translate(0 145.609)"/><circle cx="1.437" cy="1.437" r="1.437" transform="translate(15.327 145.609)"/><circle cx="1.437" cy="1.437" r="1.437" transform="translate(0 159.979)"/><circle cx="1.437" cy="1.437" r="1.437" transform="translate(15.327 159.979)"/><circle cx="1.437" cy="1.437" r="1.437" transform="translate(0 175.306)"/><circle cx="1.437" cy="1.437" r="1.437" transform="translate(15.327 175.306)"/><circle cx="1.437" cy="1.437" r="1.437" transform="translate(0 189.675)"/><circle cx="1.437" cy="1.437" r="1.437" transform="translate(15.327 189.675)"/><circle cx="1.437" cy="1.437" r="1.437" transform="translate(29.697 189.675)"/><circle cx="1.437" cy="1.437" r="1.437" transform="translate(45.024 189.675)"/><circle cx="1.437" cy="1.437" r="1.437" transform="translate(59.393 189.675)"/><circle cx="1.437" cy="1.437" r="1.437" transform="translate(74.721 189.675)"/><circle cx="1.437" cy="1.437" r="1.437" transform="translate(89.09 189.675)"/><circle cx="1.437" cy="1.437" r="1.437" transform="translate(103.459 189.675)"/><circle cx="1.437" cy="1.437" r="1.437" transform="translate(192.549 189.675)"/><circle cx="1.437" cy="1.437" r="1.437" transform="translate(118.787 189.675)"/><circle cx="1.437" cy="1.437" r="1.437" transform="translate(207.876 189.675)"/><circle cx="1.437" cy="1.437" r="1.437" transform="translate(283.555 189.675)"/><circle cx="1.437" cy="1.437" r="1.437" transform="translate(133.156 189.675)"/><circle cx="1.437" cy="1.437" r="1.437" transform="translate(222.246 189.675)"/><circle cx="1.437" cy="1.437" r="1.437" transform="translate(298.882 189.675)"/><circle cx="1.437" cy="1.437" r="1.437" transform="translate(148.483 189.675)"/><circle cx="1.437" cy="1.437" r="1.437" transform="translate(237.573 189.675)"/><circle cx="1.437" cy="1.437" r="1.437" transform="translate(313.252 189.675)"/><circle cx="1.437" cy="1.437" r="1.437" transform="translate(162.852 189.675)"/><circle cx="1.437" cy="1.437" r="1.437" transform="translate(251.942 189.675)"/><circle cx="1.437" cy="1.437" r="1.437" transform="translate(328.579 189.675)"/><circle cx="1.437" cy="1.437" r="1.437" transform="translate(178.18 189.675)"/><circle cx="1.437" cy="1.437" r="1.437" transform="translate(267.27 189.675)"/><circle cx="1.437" cy="1.437" r="1.437" transform="translate(0 205.003)"/><circle cx="1.437" cy="1.437" r="1.437" transform="translate(15.327 205.003)"/><circle cx="1.437" cy="1.437" r="1.437" transform="translate(29.697 205.003)"/><circle cx="1.437" cy="1.437" r="1.437" transform="translate(45.024 205.003)"/><circle cx="1.437" cy="1.437" r="1.437" transform="translate(59.393 205.003)"/><circle cx="1.437" cy="1.437" r="1.437" transform="translate(74.721 205.003)"/><circle cx="1.437" cy="1.437" r="1.437" transform="translate(89.09 205.003)"/><circle cx="1.437" cy="1.437" r="1.437" transform="translate(103.459 205.003)"/><circle cx="1.437" cy="1.437" r="1.437" transform="translate(192.549 205.003)"/><circle cx="1.437" cy="1.437" r="1.437" transform="translate(118.787 205.003)"/><circle cx="1.437" cy="1.437" r="1.437" transform="translate(207.876 205.003)"/><circle cx="1.437" cy="1.437" r="1.437" transform="translate(283.555 205.003)"/><circle cx="1.437" cy="1.437" r="1.437" transform="translate(133.156 205.003)"/><circle cx="1.437" cy="1.437" r="1.437" transform="translate(222.246 205.003)"/><circle cx="1.437" cy="1.437" r="1.437" transform="translate(298.882 205.003)"/><circle cx="1.437" cy="1.437" r="1.437" transform="translate(148.483 205.003)"/><circle cx="1.437" cy="1.437" r="1.437" transform="translate(237.573 205.003)"/><circle cx="1.437" cy="1.437" r="1.437" transform="translate(313.252 205.003)"/><circle cx="1.437" cy="1.437" r="1.437" transform="translate(162.852 205.003)"/><circle cx="1.437" cy="1.437" r="1.437" transform="translate(251.942 205.003)"/><circle cx="1.437" cy="1.437" r="1.437" transform="translate(328.579 205.003)"/><circle cx="1.437" cy="1.437" r="1.437" transform="translate(178.18 205.003)"/><circle cx="1.437" cy="1.437" r="1.437" transform="translate(267.27 205.003)"/></g></g></svg>
